<?xml version="1.0" encoding="utf-8"?>
<!-- Generator: Adobe Illustrator 22.0.1, SVG Export Plug-In . SVG Version: 6.00 Build 0)  -->
<svg version="1.0" xmlns="http://www.w3.org/2000/svg" xmlns:xlink="http://www.w3.org/1999/xlink" x="0px" y="0px"
	 viewBox="0 0 1351 1010.6" style="enable-background:new 0 0 1351 1010.6;" xml:space="preserve">
<style type="text/css">
	.st0{fill:#F2F2F2;}
	.st1{fill:#F15A24;}
	.st2{fill:#FFFFFF;}
	.st3{fill:#333333;}
	.st4{fill:#009245;}
</style>
<g id="Слой_2">
	<g>
		<path class="st0" d="M408.7,372.1l-1.1-2.2c-2.4-4.5-2.8-10.2-0.5-17.1c2.1-6.1,2.9-10.4,1.4-14.3c-1.7-4.4-5.7-6.3-11.2-4.2
			c-3.1,1.2-6.2,3.6-7.7,6.1l-4.2-4.6c2-3.2,6.4-6.5,11-8.3c10-3.9,16.9,0.5,19.5,7.1c2.3,5.9,0.7,11.4-1.5,18
			c-2,6-1.9,10.4,0.1,14.7l1,2.2L408.7,372.1z M411.5,385c-1.3-3.2,0-6.3,3.1-7.5c3-1.2,6,0.2,7.3,3.5c1.2,3,0.1,6.2-3.1,7.4
			C415.7,389.6,412.7,388.1,411.5,385z"/>
	</g>
	<g>
		<path class="st0" d="M783.6,479.2c1.5-3.1,4.6-4.3,7.6-2.9c3,1.4,3.9,4.5,2.5,7.7c-1.4,3-4.4,4.3-7.5,2.8
			C783.2,485.4,782.3,482.1,783.6,479.2z M791.1,468.3l0.9-2.3c1.6-4.8,5.5-9.1,12.1-12.1c5.9-2.7,9.6-5,11.3-8.8
			c2-4.3,0.7-8.4-4.6-11c-3-1.4-6.9-2-9.7-1.4l0.5-6.3c3.7-0.7,9.2,0.2,13.6,2.3c9.7,4.6,11.3,12.6,8.2,19
			c-2.7,5.7-7.9,8.4-14.2,11.3c-5.8,2.6-8.9,5.7-10.6,10.1l-0.9,2.2L791.1,468.3z"/>
	</g>
	<g>
		<path class="st0" d="M654.3,340.9c1.5-3.1,4.6-4.3,7.6-3c3,1.4,4,4.5,2.5,7.6c-1.4,3-4.4,4.3-7.5,2.9
			C653.9,347.1,652.9,343.9,654.3,340.9z M661.7,330l0.9-2.3c1.6-4.8,5.5-9.1,12.1-12.2c5.9-2.7,9.5-5,11.3-8.8
			c2-4.3,0.7-8.4-4.6-11c-3-1.4-6.9-2-9.8-1.4l0.5-6.3c3.7-0.7,9.2,0.2,13.7,2.3c9.7,4.5,11.3,12.6,8.3,19
			c-2.7,5.7-7.8,8.4-14.1,11.3c-5.8,2.7-8.9,5.7-10.6,10.2l-0.9,2.2L661.7,330z"/>
	</g>
	<g>
		<path class="st0" d="M166,31.6v72.9h13.6v17.8H166V143h-20.7v-20.6H91.4v-17.8c13.1-24.5,28.1-49.2,43.2-72.9H166z M145.2,104.6
			V48.3h-0.7c-11.4,17.7-23.2,37.1-33.1,56v0.2H145.2z"/>
		<path class="st0" d="M190.3,83.4c0-32.4,15.3-53.9,42.3-53.9c27.2,0,41.9,21.4,41.9,53.9v7.8c0,31-14.3,53.9-42.3,53.9
			c-27.2,0-41.9-21.6-41.9-53.9V83.4z M212.3,91c0,23.8,7.9,36.1,20.1,36.1c12.3,0,20.1-12.4,20.1-36.1v-7.5c0-23.7-7.8-36-20.1-36
			c-12.2,0-20.1,12.2-20.1,36V91z"/>
		<path class="st0" d="M361.3,31.6v72.9h13.6v17.8h-13.6V143h-20.7v-20.6h-53.8v-17.8c13.1-24.5,28.1-49.2,43.2-72.9H361.3z
			 M340.6,104.6V48.3h-0.7c-11.4,17.7-23.2,37.1-33.1,56v0.2H340.6z"/>
		<path class="st0" d="M423.9,143V31.6h18.4l49.4,74.1h0.7V31.6h20.6V143h-18.3l-49.5-74.5h-0.7V143H423.9z"/>
		<path class="st0" d="M532.1,80.6c0-31.7,18.1-51.1,47.8-51.1c29.9,0,47.6,19.6,47.6,51.1v14.3c0,31.4-18,50.2-47.8,50.2
			s-47.6-18.8-47.6-50.2V80.6z M554.5,94.9c0,21.5,10.6,31.8,25.3,31.8c14.8,0,25.4-10.4,25.4-31.8V80.4c0-21.5-10.6-32.5-25.4-32.5
			c-14.7,0-25.3,11.1-25.3,32.5V94.9z"/>
		<path class="st0" d="M666,143V50.1h-31.7V31.6h85.3v18.4h-31.7V143H666z"/>
		<path class="st0" d="M765.6,143V31.6h71v18.2h-48.9v31.1h44.7v17.8h-44.7V143H765.6z"/>
		<path class="st0" d="M848.4,80.6c0-31.7,18.1-51.1,47.8-51.1c29.9,0,47.6,19.6,47.6,51.1v14.3c0,31.4-18,50.2-47.8,50.2
			s-47.6-18.8-47.6-50.2V80.6z M870.8,94.9c0,21.5,10.6,31.8,25.3,31.8c14.8,0,25.4-10.4,25.4-31.8V80.4c0-21.5-10.6-32.5-25.4-32.5
			c-14.7,0-25.3,11.1-25.3,32.5V94.9z"/>
		<path class="st0" d="M983.7,102.4c0,15.3,9.1,24,23,24c13.7,0,22.9-8.7,22.9-24V31.6h22v73.7c0,23.6-17,39.7-44.9,39.7
			c-28.1,0-45-16.2-45-39.7V31.6h22V102.4z"/>
		<path class="st0" d="M1074,143V31.6h18.4l49.4,74.1h0.7V31.6h20.6V143h-18.3l-49.5-74.5h-0.7V143H1074z"/>
		<path class="st0" d="M1227.2,31.6c33.9,0,49.8,20.1,49.8,55.4c0,35.4-16.2,56-49.8,56h-40.6V31.6H1227.2z M1208.6,125h15.7
			c18.5,0,30-9.4,30-37.5c0-23-8-37.8-30-37.8h-15.7V125z"/>
	</g>
</g>
<g id="Слой_1">
	<g id="хвост_1_">
		<path class="st1" d="M829.8,884.1c10.2-1.3,47.1-6,72.2-37.7c35.9-45.3,14.3-104,13-107.4c7.5-2.4,55.4-16.9,96,10.6
			c45.1,30.5,48.7,90.8,39.9,127.7c-1.4,5.7-8.8,34.8-35,61.8c-57.7,59.5-155,55-216.4,31.7c-24.9-9.4-66-25-76.5-62.7
			c-6.5-23.2,1.6-44.9,7-56.3C736.5,857.7,775.7,891,829.8,884.1z"/>
		<path class="st2" d="M916.6,819.5c1.7-5.4,3.6-12.8,4.9-22c0,0,0.5-3.7,0.8-7.3c1.5-18.7-3-37.7-7.3-51.3
			c4.5-1.7,55.1-19.5,97.6,11.4c24.9,18.1,33.8,43.3,36.6,52.9c-12.6,11.9-24.6,17.5-32.5,20.3c-21.9,7.9-42.2,5.2-69.2,1.6
			C934.6,823.5,924,821.2,916.6,819.5z"/>
	</g>
	<g id="туловище_1_">
		<path class="st1" d="M704.7,978.9c-27.3,1.9-57,2.8-88.7,2.2c-26.1-0.6-50.8-2.2-74-4.3c-74-34.6-103.4-102-86.6-140
			c13.5-30.9,55.8-38.3,65.5-39.9c4.7-32.6,9-66.3,12.7-101.1c4.2-38.8,7.4-76.5,9.9-112.9c8.5,2.6,20,5.8,33.8,8.7
			c14,2.9,26.7,4.5,33.8,5.2c33,3,66.6-5.3,84-10.4c4.7,38,9.3,75.9,13.8,113.9c4.2,35.2,8.4,70.4,12.5,105.6
			c10.3,0.6,53.7,4.9,67.5,33.4C806,872.9,778.4,939,704.7,978.9z"/>
		<path class="st2" d="M662.7,981.1c-11.2,1.9-25,2.2-33.8,2.2c-9.4,0-26.7,0.3-40.2-2.2c-31.1-5.9-52.3-28.1-63.4-39.9
			c-5-5.6-58.1-62.4-42.3-89c10.6-17.6,49.6-18.2,92.8,0c1.6-40.1,2.7-81.2,3.1-123.3c0.5-46.4,0.2-91.6-0.8-135.5
			c5.2,2.5,12.9,5.7,22.8,7.3c5.3,0.9,10.9,1.3,22,0.8c9.5-0.4,22.6-1.4,38.2-4.1c2.6,84.9,5.2,169.9,7.8,254.8
			c47.3-18.5,89-14.8,99.2,4.3c14.1,26.6-33.2,77-40.2,84.4C718.8,951.1,695.9,975.2,662.7,981.1z"/>
	</g>
	<g id="лапки_1_">
		<path d="M572.3,984.9c-7.3,3.1-20.8,7.7-37.9,6.8c-11.7-0.6-21.1-4-27.3-6.8c-2.9-2.5-11.5-10.2-12.6-22.3
			c-1.8-16.4,11.5-30.9,23.2-35.5c27.6-10.8,66.4,23.2,63.4,44.5C579.9,975.6,577.9,980.3,572.3,984.9z"/>
		<path d="M431.8,638.8c-6.8-4.1-19.6-10.8-36.6-12.2c-11.7-1-21.5,0.8-28.1,2.6c-3.1,2-12.6,8.5-15.6,20.1
			c-3.9,16.2,7.1,32.3,18.2,38.6c25.9,14.9,68.8-13.4,68.6-35.1C438.2,649.1,436.4,644,431.8,638.8z"/>
		<g>
			<path class="st3" d="M395.1,656c-3.9-4-5.6-9.6-4.9-15.5c0.2-2.8,1.2-5.8,2.8-7.9c1.6-2.4,3.8-4.4,6.2-5.2
				c-3.5,4.1-5.5,8.6-6.1,13.6C392.5,646,393.4,651,395.1,656z"/>
		</g>
		<g>
			<path class="st3" d="M359.4,652.9c-3-3.3-3.9-8.6-2.4-12.8c0.7-2.1,1.7-4.2,3.3-6s3.4-2.9,5.8-3.4c-3.1,2.9-5.1,6.5-6.2,10.1
				C358.7,644.8,358.5,648.5,359.4,652.9z"/>
		</g>
		<g>
			<path class="st3" d="M374,655c-3-4.5-3.8-10.8-2.8-16.3c0.8-2.7,1.8-5.5,3.7-7.8c1.9-2.1,4.3-3.8,7-4.2
				c-4.3,3.1-6.6,7.6-7.8,12.5C373.2,644.5,373.1,649.7,374,655z"/>
		</g>
		<g>
			<path class="st3" d="M538.5,962.7c-2.3,4.9-4.1,9.6-4.1,14.5c-0.3,4.9,1.2,9.9,4.1,14.2c-2.3-1.2-4.1-3.4-5.3-6.2
				c-1.2-2.5-1.8-5.6-1.8-8.3C531.5,971.3,534.1,965.7,538.5,962.7z"/>
		</g>
		<g>
			<path class="st3" d="M502.4,960.5c-1.5,4.3-1.8,8-1.2,12.1c0.6,4,2.1,7.4,4.7,10.8c-2.1-0.6-3.8-2.2-5.3-4
				c-1.5-1.9-2.3-4-2.6-6.5C497.7,968.2,499.2,963.3,502.4,960.5z"/>
		</g>
		<g>
			<path class="st3" d="M517.4,960.5c-1.5,5.3-2.3,10.5-2.1,15.5s2.1,9.9,6.2,13.6c-2.6-0.6-4.7-2.8-6.5-5.3c-1.5-2.5-2.3-5.3-2.6-8
				C512.1,970.4,513.9,964.5,517.4,960.5z"/>
		</g>
		<path d="M674.1,985.1c7.3,3.1,20.8,7.7,37.9,6.8c11.7-0.6,21.1-4,27.3-6.8c2.9-2.5,11.5-10.2,12.6-22.3
			c1.8-16.4-11.5-30.9-23.2-35.5c-27.6-10.8-66.4,23.2-63.4,44.5C666.2,975.8,668.5,980.4,674.1,985.1z"/>
		<g>
			<path class="st3" d="M707.8,962.8c4.1,3.1,6.8,8.7,7,14.5c0,2.8-0.3,5.9-1.8,8.3c-1.2,2.5-2.9,4.6-5.3,6.2
				c2.9-4.3,4.4-9.3,4.1-14.2C711.7,972.4,710.2,967.8,707.8,962.8z"/>
		</g>
		<g>
			<path class="st3" d="M743.7,960.7c3.2,2.8,5,7.7,4.1,12.4c-0.3,2.5-1.2,4.6-2.6,6.5c-1.5,1.9-3.2,3.4-5.3,4
				c2.6-3.4,4.4-7.1,4.7-10.8C745.4,968.7,744.8,964.7,743.7,960.7z"/>
		</g>
		<g>
			<path class="st3" d="M728.7,960.7c3.5,4,5.3,9.9,5,15.8c-0.3,2.8-1.2,5.9-2.6,8c-1.5,2.5-3.8,4.3-6.5,5.3
				c3.8-3.7,5.6-8.7,6.2-13.6C731.3,970.9,730.2,965.9,728.7,960.7z"/>
		</g>
		<path class="st1" d="M543.2,647c-18.9,17.4-37.8,34.7-56.7,52.1c-11,33-14.9,61.5-5.7,66.7c9.9,5.6,35.4-15.4,62.4-51.3
			c1.4-22.5,2.7-45,4.1-67.5"/>
		<path d="M435,642.9c17.4,19.3,34.7,38.5,52.1,57.8c-2.2,6.7-4.7,16.4-4.9,28.5c-0.2,12.4,2,22.5,4.1,29.3c0.1,4.6-0.7,7.3-2.4,8.1
			c-7.6,3.6-33.1-30.3-76.5-101.7L435,642.9z"/>
		<path d="M813.5,638.8c6.8-4.1,19.6-10.8,36.6-12.2c11.7-1,21.5,0.8,28.1,2.6c3.1,2,12.6,8.5,15.6,20.1
			c3.9,16.2-7.1,32.3-18.2,38.6c-25.9,14.9-68.8-13.4-68.6-35.1C807.1,649.1,808.8,644,813.5,638.8z"/>
		<g>
			<path class="st3" d="M850.2,656c3.9-4,5.6-9.6,4.9-15.5c-0.2-2.8-1.2-5.8-2.8-7.9c-1.6-2.4-3.8-4.4-6.2-5.2
				c3.5,4.1,5.5,8.6,6.1,13.6C852.8,646,851.9,651,850.2,656z"/>
		</g>
		<g>
			<path class="st3" d="M885.9,652.9c3-3.3,3.9-8.6,2.4-12.8c-0.7-2.1-1.7-4.2-3.3-6s-3.4-2.9-5.8-3.4c3.1,2.9,5.1,6.5,6.2,10.1
				C886.6,644.8,886.8,648.5,885.9,652.9z"/>
		</g>
		<g>
			<path class="st3" d="M871.3,655c3-4.5,3.8-10.8,2.8-16.3c-0.8-2.7-1.8-5.5-3.7-7.8c-1.9-2.1-4.3-3.8-7-4.2
				c4.3,3.1,6.6,7.6,7.8,12.5C872.1,644.5,872.1,649.7,871.3,655z"/>
		</g>
	</g>
	<g id="Слой_1_2_">
		<path class="st1" d="M797.6,367.6c-2.7-10.7-144.8,4.3-141.4,19c3.4,14.7,67.6,138.6,88.4,113.4
			C765.7,475.1,800.3,378.5,797.6,367.6z"/>
		<path class="st1" d="M585.7,379.3c-4.7-11.6-12-26.2-23.3-41.4c-13.4-18.1-34.4-38.3-38.8-39.1s-32,37.2-40.9,77.3
			c-10.5,47.4,3.2,85.6,8.9,99.4C523,443.4,554.3,411.4,585.7,379.3z"/>
		<path class="st2" d="M571.3,396.7c-3-7.3-7.6-16.5-14.7-26.1c-8.4-11.4-21.7-24.1-24.4-24.6c-2.7-0.5-20.2,23.4-25.8,48.7
			c-6.6,29.9,2,53.9,5.6,62.6C531.8,437.1,551.5,416.9,571.3,396.7z"/>
		<path class="st2" d="M761.2,394.6c-1.4-5.3-73.2,3.9-71.7,11.2s32.6,68.7,43.4,55.6C743.9,448.4,762.3,399.8,761.2,394.6z"/>
		<path class="st2" d="M630.3,375.3c-75.3-6.4-142.3,61.4-150,151.3c-3.9,45.7,134.5,79.5,134.5,79.5s134.2-12.1,138-56.3
			C760.5,459.9,705.6,381.7,630.3,375.3z"/>
		<path class="st1" d="M629.8,549.6c-9.4-0.8-18.7-1.6-28.1-2.4c0.6-6.8,2.8-42.4-23.3-73.7c-26.4-31.3-61.9-34.8-68.7-35.4
			c6.7-10.7,22.4-32.6,51.2-48c10.4-5.7,35.9-18.9,70.4-16c40.3,3.4,66,27.1,75,35.4c18.7,17.6,28,36.7,32.8,48.1
			c-6.5-0.6-43.5-2.9-75.1,24.7C634.4,508.3,630.5,542.3,629.8,549.6z"/>
		<g>
			<polygon points="613.8,566 599.2,546.9 631.4,549.7 			"/>
			<g>
				<path d="M616.9,563.4c-4.9-6.4-9.7-12.6-14.6-19c-1.2,2.2-2.2,4.3-3.4,6.5c10.7,0.9,21.3,1.8,32.2,2.7c-0.8-2.4-1.4-4.6-2.3-7
					c-6,5.5-11.6,10.8-17.6,16.3c-3.7,3.3,1.3,9.5,5,5.9c6-5.5,11.6-10.8,17.6-16.3c2.5-2.1,1.4-6.7-2.3-7
					c-10.7-0.9-21.3-1.8-32.2-2.7c-3.4-0.3-5.3,3.7-3.4,6.5c4.9,6.4,9.7,12.6,14.6,19C614,572.5,619.9,567.5,616.9,563.4z"/>
			</g>
		</g>
	</g>
	<path class="st2" d="M578.9,521.4c0,0,4.6-56.3-46.1-43.6C532.8,477.8,514.2,518.5,578.9,521.4z"/>
	<path class="st2" d="M654.8,527.5c0,0,6.4-56.3,53.9-33.9C708.7,493.6,719,537.4,654.8,527.5z"/>
	<circle class="st4" cx="678.2" cy="507.9" r="16"/>
	<g>
		<path d="M654.8,527.5c0.2-3.2,0.7-6.5,1.4-9.7c0.7-3.2,1.7-6.3,2.9-9.4c2.5-6.1,6.2-12,11.6-16.2c2.7-2.1,5.8-3.8,9.2-4.8
			c3.3-1,6.9-1.3,10.3-1.2c6.9,0.4,13.4,2.5,19.5,5.3l1.1,0.5l0.2,1.1c0.2,1,0.3,1.8,0.4,2.7c0.1,0.9,0.2,1.7,0.2,2.6
			c0.1,1.7,0,3.4-0.2,5.1c-0.4,3.4-1.2,6.8-2.7,10c-1.5,3.2-3.7,6-6.3,8.3c-2.6,2.3-5.6,4-8.8,5.3c-3.2,1.2-6.4,2-9.7,2.5
			c-3.3,0.4-6.6,0.6-9.8,0.5c-1.6-0.1-3.3-0.1-4.9-0.3c-1.6-0.2-3.2-0.2-4.8-0.5l-2.4-0.4c-0.8-0.1-1.6-0.2-2.4-0.4
			C657.9,528.2,656.3,527.8,654.8,527.5z M654.8,527.5c3.4,0.3,6.4,0.4,9.6,0.5c1.6,0.1,3.2,0,4.8,0c1.6,0,3.2-0.1,4.8-0.2
			c3.2-0.2,6.3-0.6,9.4-1.2c3-0.7,6-1.5,8.8-2.8c2.8-1.3,5.3-2.9,7.4-5c2.1-2,3.9-4.5,5-7.1c1.2-2.7,1.9-5.6,2.2-8.6
			c0.1-1.5,0.2-3,0.1-4.5c0-0.8-0.1-1.5-0.2-2.2c-0.1-0.7-0.2-1.5-0.3-2.1l1.3,1.6c-5.6-2.7-11.6-4.6-17.7-5.1c-3-0.2-6,0-8.9,0.7
			c-2.9,0.8-5.6,2.1-8.1,3.8c-5,3.5-8.8,8.6-11.7,14.3c-1.5,2.8-2.7,5.8-3.8,8.8c-0.6,1.5-1,3-1.5,4.6
			C655.5,524.4,655.1,526,654.8,527.5z"/>
	</g>
	<circle class="st4" cx="558.7" cy="497.6" r="16"/>
	<g>
		<path d="M578.9,521.4c0-1.6-0.1-3.2-0.3-4.8c-0.1-1.6-0.3-3.2-0.5-4.8c-0.5-3.2-1.1-6.3-2-9.3c-1.7-6.1-4.5-11.8-8.7-16.2
			c-2.1-2.2-4.5-3.9-7.2-5.3c-2.7-1.3-5.6-2-8.6-2.5c-6-0.7-12.2,0-18.3,1.5l1.6-1.3c-0.2,0.6-0.5,1.3-0.7,2
			c-0.2,0.7-0.4,1.4-0.6,2.2c-0.4,1.5-0.6,2.9-0.8,4.4c-0.3,3-0.2,6,0.5,8.8c0.6,2.9,1.8,5.6,3.5,8c1.7,2.4,3.9,4.5,6.3,6.3
			c2.5,1.8,5.2,3.2,8.1,4.5c2.9,1.2,5.9,2.2,8.9,3c1.5,0.4,3.1,0.8,4.6,1.1c1.6,0.3,3.1,0.7,4.7,0.9
			C572.6,520.5,575.5,521,578.9,521.4z M578.9,521.4c-1.5,0-3.1,0-4.8,0c-0.9,0-1.7,0-2.5-0.1l-2.4-0.1c-1.6,0-3.2-0.3-4.8-0.4
			c-1.6-0.1-3.2-0.4-4.8-0.7c-3.2-0.5-6.4-1.4-9.5-2.4c-3.1-1.1-6.2-2.5-9-4.3c-2.8-1.8-5.5-4.1-7.6-6.9c-2.1-2.8-3.7-6-4.6-9.4
			c-0.9-3.4-1-6.9-0.7-10.3c0.2-1.7,0.5-3.4,0.8-5.1c0.2-0.8,0.4-1.7,0.7-2.5c0.3-0.8,0.5-1.6,0.9-2.5l0.4-1l1.1-0.3
			c6.4-1.6,13.2-2.4,20.1-1.4c3.4,0.6,6.7,1.5,9.8,3.2c3.1,1.6,5.8,3.9,8,6.5c4.5,5.2,6.9,11.7,8.2,18.1c0.6,3.2,1,6.5,1,9.8
			C579.5,514.9,579.4,518.2,578.9,521.4z"/>
	</g>
	<g>
		<path d="M580.1,467.5c-0.6,0.3-1.1,0.4-1.6,0.6c-0.5,0.2-1,0.3-1.6,0.5c-1,0.3-2.1,0.5-3.1,0.7c-2.1,0.4-4.3,0.6-6.5,0.6
			c-1.1,0-2.2-0.1-3.2-0.2c-1-0.1-2-0.3-3-0.4c-2-0.3-3.9-0.6-5.9-1c-3.9-0.7-7.8-1.4-11.6-2.2c-3.9-0.8-7.7-1.6-11.6-2.5
			c3.9,0.4,7.9,0.6,11.8,0.8c3.9,0.2,7.9,0.4,11.8,0.5c2,0.1,3.9,0.1,5.9,0.1c1,0,1.9,0,2.9,0c1,0,1.8-0.1,2.7-0.2
			c1.7-0.2,3.5-0.7,5.2-1.3c0.8-0.3,1.7-0.6,2.5-1c0.4-0.2,0.8-0.4,1.2-0.6c0.4-0.2,0.8-0.4,1.1-0.6L580.1,467.5z"/>
	</g>
	<g>
		<path d="M667.6,471.6c0.3,0.1,0.7,0.3,1.1,0.4c0.4,0.1,0.8,0.3,1.3,0.4c0.9,0.3,1.7,0.5,2.6,0.7c1.8,0.4,3.5,0.6,5.3,0.6
			c1.8,0,3.5-0.2,5.4-0.6c1.9-0.4,3.8-0.8,5.7-1.3c3.8-0.9,7.7-1.8,11.6-2.6c2-0.4,3.9-0.7,5.9-1c2-0.2,4-0.4,6-0.2
			c-2,0.1-3.9,0.6-5.8,1.1c-1.9,0.5-3.7,1.2-5.6,1.8c-3.7,1.3-7.3,2.8-11,4.3c-1.8,0.7-3.7,1.5-5.6,2.1c-1.9,0.7-4,1.3-6.2,1.6
			c-2.2,0.3-4.3,0.4-6.5,0.2c-1.1-0.1-2.2-0.2-3.2-0.3c-0.5-0.1-1.1-0.2-1.6-0.3c-0.6-0.1-1-0.2-1.7-0.4L667.6,471.6z"/>
	</g>
	<g>
		<path d="M601.5,586.1c0.7-1.1,1.6-2.1,2.5-3.1l1.3-1.4c0.5-0.5,0.9-0.9,1.4-1.3c0.9-0.9,1.9-1.7,2.9-2.5c1-0.8,2-1.6,3-2.3
			l1.8-1.3l1.3,1.6c0.8,0.9,1.6,1.8,2.3,2.8c0.7,1,1.5,1.9,2.1,3c0.7,1,1.3,2.1,1.9,3.1c0.6,1.1,1.2,2.2,1.6,3.4l-0.2,0.2
			c-3.3-3.6-6.5-7.2-9.7-10.8l0.3,0l-6.2,4.4c-2.1,1.5-4.1,2.9-6.2,4.4L601.5,586.1z"/>
	</g>
	<circle cx="560.8" cy="496.4" r="12.4"/>
	<circle cx="677.2" cy="506.8" r="12.4"/>
	<path class="st1" d="M702.6,645.4c18.9,17.4,37.8,34.7,56.7,52.1c11,33,14.9,61.5,5.7,66.7c-9.9,5.6-35.4-15.4-62.4-51.3
		c-1.4-22.5-2.7-45-4.1-67.5"/>
	<path d="M810.9,641.3c-17.4,19.3-34.7,38.5-52.1,57.8c2.2,6.7,4.7,16.4,4.9,28.5c0.2,12.4-2,22.5-4.1,29.3
		c-0.1,4.6,0.7,7.3,2.4,8.1c7.6,3.6,33.1-30.3,76.5-101.7L810.9,641.3z"/>
</g>
</svg>
