<?xml version="1.0" encoding="utf-8"?>
<!-- Generator: Adobe Illustrator 22.0.1, SVG Export Plug-In . SVG Version: 6.00 Build 0)  -->
<svg version="1.0" xmlns="http://www.w3.org/2000/svg" xmlns:xlink="http://www.w3.org/1999/xlink" x="0px" y="0px"
	 viewBox="0 0 909 1059.9" style="enable-background:new 0 0 909 1059.9;" xml:space="preserve">
<style type="text/css">
	.st0{fill:#F2F2F2;}
	.st1{fill:#F15A24;}
	.st2{fill:#FFFFFF;}
	.st3{fill:#333333;}
	.st4{fill:#009245;}
</style>
<g id="Слой_2">
	<g>
		<path class="st0" d="M167.1,392.3l-1.1-2.4c-2.5-4.8-3-11-0.5-18.5c2.3-6.6,3.2-11.2,1.5-15.4c-1.9-4.8-6.1-6.8-12-4.6
			c-3.4,1.3-6.7,3.9-8.3,6.6l-4.6-5c2.2-3.5,7-7,11.9-9c10.8-4.2,18.2,0.5,21,7.6c2.5,6.4,0.7,12.3-1.7,19.4
			c-2.2,6.5-2.1,11.2,0.1,15.8l1,2.4L167.1,392.3z M170.2,406.2c-1.4-3.5,0-6.8,3.3-8.1c3.3-1.3,6.5,0.3,7.8,3.7
			c1.3,3.3,0.1,6.6-3.3,8C174.7,411.1,171.4,409.5,170.2,406.2z"/>
	</g>
	<g>
		<path class="st0" d="M571.2,507.7c1.6-3.4,5-4.7,8.2-3.2c3.2,1.5,4.3,4.9,2.7,8.3c-1.5,3.2-4.7,4.7-8.1,3.1
			C570.7,514.3,569.7,510.8,571.2,507.7z M579.2,495.9l0.9-2.4c1.8-5.2,5.9-9.8,13-13.1c6.4-2.9,10.3-5.4,12.2-9.5
			c2.2-4.6,0.7-9.1-5-11.9c-3.3-1.5-7.4-2.2-10.5-1.5l0.5-6.8c4-0.8,9.9,0.2,14.7,2.5c10.5,4.9,12.1,13.6,8.9,20.5
			c-2.9,6.2-8.5,9-15.3,12.1c-6.2,2.8-9.6,6.2-11.5,10.9l-1,2.4L579.2,495.9z"/>
	</g>
	<g>
		<path class="st0" d="M431.8,358.6c1.6-3.4,5-4.7,8.1-3.2s4.3,4.9,2.7,8.2c-1.5,3.2-4.7,4.7-8.1,3.1
			C431.3,365.3,430.3,361.8,431.8,358.6z M439.8,346.8l0.9-2.5c1.8-5.2,5.9-9.8,13-13.1c6.4-2.9,10.3-5.4,12.2-9.5
			c2.2-4.6,0.7-9.1-5-11.9c-3.3-1.5-7.4-2.1-10.5-1.5l0.5-6.8c4-0.8,9.9,0.2,14.7,2.4c10.5,4.9,12.2,13.6,8.9,20.5
			c-2.9,6.2-8.4,9-15.2,12.2c-6.2,2.9-9.5,6.2-11.4,11l-1,2.4L439.8,346.8z"/>
	</g>
	<g>
		<path class="st0" d="M92.1,150.7H14.9v-120h77.3v19.4H38.4v30.8h50.5v18.2H38.4v32.2h53.7V150.7z"/>
		<path class="st0" d="M204,68.6c0,19.7-12.7,30.1-21.9,33.7l24.2,48.4h-26.6l-21-44.8h-21.4v44.8H114v-120h47.9
			C190.4,30.7,204,47.4,204,68.6z M158.1,88.1c13.4,0,21.4-6.6,21.4-19c0-13.2-8.8-19.8-21-19.8h-21.1v38.8H158.1z"/>
		<path class="st0" d="M314.8,68.6c0,19.7-12.7,30.1-21.9,33.7l24.2,48.4h-26.6l-21-44.8h-21.4v44.8h-23.4v-120h47.9
			C301.1,30.7,314.8,47.4,314.8,68.6z M268.9,88.1c13.4,0,21.4-6.6,21.4-19c0-13.2-8.8-19.8-21-19.8h-21.1v38.8H268.9z"/>
		<path class="st0" d="M330.7,83.4c0-34.1,19.5-55,51.5-55c32.2,0,51.3,21.1,51.3,55v15.4c0,33.8-19.4,54.2-51.5,54.2
			s-51.3-20.3-51.3-54.2V83.4z M354.9,98.9c0,23.1,11.4,34.3,27.3,34.3c15.9,0,27.3-11.2,27.3-34.3V83.2c0-23.1-11.4-35.1-27.3-35.1
			c-15.8,0-27.3,12-27.3,35.1V98.9z"/>
		<path class="st0" d="M544.2,68.6c0,19.7-12.7,30.1-21.9,33.7l24.2,48.4H520l-21-44.8h-21.4v44.8h-23.4v-120h47.9
			C530.6,30.7,544.2,47.4,544.2,68.6z M498.4,88.1c13.4,0,21.4-6.6,21.4-19c0-13.2-8.8-19.8-21-19.8h-21.1v38.8H498.4z"/>
		<path class="st0" d="M674.2,30.7v78.6h14.7v19.2h-14.7v22.2h-22.3v-22.2h-58v-19.2c14.1-26.4,30.3-53,46.6-78.6H674.2z
			 M651.9,109.3V48.6h-0.8c-12.3,19.1-25,40-35.7,60.4v0.3H651.9z"/>
		<path class="st0" d="M700.5,86.5c0-34.9,16.4-58.1,45.6-58.1c29.4,0,45.2,23,45.2,58.1v8.4c0,33.4-15.4,58.1-45.6,58.1
			c-29.3,0-45.2-23.3-45.2-58.1V86.5z M724.1,94.7c0,25.7,8.5,38.9,21.7,38.9c13.3,0,21.7-13.4,21.7-38.9v-8.1
			c0-25.5-8.4-38.8-21.7-38.8c-13.2,0-21.7,13.2-21.7,38.8V94.7z"/>
		<path class="st0" d="M884.8,30.7v78.6h14.7v19.2h-14.7v22.2h-22.3v-22.2h-58v-19.2c14.1-26.4,30.3-53,46.6-78.6H884.8z
			 M862.4,109.3V48.6h-0.8c-12.3,19.1-25,40-35.7,60.4v0.3H862.4z"/>
	</g>
</g>
<g id="Слой_1">
	<g id="хвост_1_">
		<path class="st1" d="M621,944.1c11-1.4,50.8-6.5,77.8-40.7c38.7-48.9,15.5-112.1,14-115.8c8-2.6,59.7-18.2,103.5,11.4
			c48.6,32.9,52.5,97.9,43,137.7c-1.5,6.1-9.5,37.6-37.7,66.7c-62.2,64.1-167,59.3-233.3,34.2c-26.8-10.2-71.2-27-82.4-67.5
			c-7-25,1.7-48.4,7.6-60.7C520.4,915.6,562.6,951.6,621,944.1z"/>
		<path class="st2" d="M714.6,874.5c1.8-5.8,3.9-13.8,5.3-23.7c0,0,0.6-4,0.9-7.9c1.6-20.2-3.2-40.7-7.9-55.3
			c4.9-1.8,59.4-21,105.2,12.3c26.9,19.5,36.4,46.7,39.5,57c-13.6,12.8-26.5,18.9-35.1,21.9c-23.6,8.5-45.5,5.6-74.5,1.8
			C733.9,878.8,722.5,876.4,714.6,874.5z"/>
	</g>
	<g id="туловище_1_">
		<path class="st1" d="M486.1,1046.3c-29.4,2-61.4,3-95.6,2.3c-28.2-0.7-54.8-2.3-79.8-4.7C231,1006.7,199.4,934,217.4,893
			c14.6-33.3,60.1-41.3,70.6-43c5.1-35.1,9.7-71.5,13.7-109c4.5-41.8,8-82.4,10.7-121.7c9.2,2.8,21.6,6.3,36.4,9.3
			c15.1,3.1,28.7,4.9,36.4,5.6c35.6,3.2,71.8-5.7,90.6-11.2c5,40.9,10,81.9,14.9,122.8c4.5,37.9,9,75.8,13.5,113.8
			c11.1,0.7,57.9,5.3,72.8,36C595.3,932,565.6,1003.3,486.1,1046.3z"/>
		<path class="st2" d="M440.9,1048.6c-12,2-26.9,2.3-36.4,2.3c-10.1,0-28.8,0.3-43.4-2.3c-33.5-6.3-56.3-30.3-68.4-43
			c-5.4-6-62.7-67.3-45.6-96c11.4-19,53.5-19.7,100,0c1.7-43.2,2.9-87.5,3.4-132.9c0.5-50,0.2-98.7-0.9-146.1
			c5.6,2.7,13.9,6.1,24.6,7.9c5.8,1,11.7,1.4,23.7,0.9c10.3-0.4,24.3-1.5,41.2-4.4c2.8,91.5,5.6,183.1,8.4,274.6
			c51-20,95.9-16,107,4.7c15.2,28.7-35.8,83-43.4,91C501.3,1016.3,476.7,1042.3,440.9,1048.6z"/>
		<path d="M308.9,1046.3c-7.9,3.3-22.5,8.3-40.8,7.3c-12.7-0.7-22.8-4.3-29.4-7.3c-3.2-2.7-12.3-11-13.6-24
			c-1.9-17.7,12.3-33.3,25-38.3c29.8-11.7,71.5,25,68.4,48C317.1,1036.3,314.9,1041.3,308.9,1046.3z"/>
	</g>
	<g id="лапки_1_">
		<path d="M191.9,679.7c-7.3-4.5-21.2-11.6-39.5-13.1c-12.6-1.1-23.2,0.9-30.3,2.8c-3.3,2.1-13.6,9.2-16.9,21.7
			c-4.2,17.4,7.7,34.9,19.6,41.6c27.9,16.1,74.1-14.5,74-37.9C198.8,690.8,196.9,685.3,191.9,679.7z"/>
		<g>
			<path class="st3" d="M152.4,698.3c-4.2-4.3-6-10.4-5.3-16.7c0.2-3,1.3-6.3,3.1-8.5c1.7-2.6,4.1-4.8,6.7-5.6
				c-3.8,4.4-6,9.3-6.6,14.6C149.6,687.4,150.5,692.8,152.4,698.3z"/>
		</g>
		<g>
			<path class="st3" d="M113.9,694.9c-3.3-3.5-4.2-9.3-2.6-13.8c0.8-2.3,1.9-4.6,3.6-6.5s3.7-3.1,6.2-3.6c-3.4,3.1-5.5,7-6.7,10.9
				C113.2,686.2,112.9,690.2,113.9,694.9z"/>
		</g>
		<g>
			<path class="st3" d="M129.6,697.2c-3.2-4.9-4-11.6-3-17.5c0.8-3,1.9-5.9,4-8.4c2-2.2,4.7-4.1,7.6-4.5c-4.6,3.4-7.2,8.2-8.4,13.5
				C128.7,685.8,128.7,691.5,129.6,697.2z"/>
		</g>
		<g>
			<path class="st3" d="M272.5,1022.3c-2.5,5.3-4.4,10.3-4.4,15.7c-0.3,5.3,1.3,10.7,4.4,15.3c-2.5-1.3-4.4-3.7-5.7-6.7
				c-1.3-2.7-1.9-6-1.9-9C264.9,1031.6,267.8,1025.6,272.5,1022.3z"/>
		</g>
		<g>
			<path class="st3" d="M233.6,1020c-1.6,4.7-1.9,8.7-1.3,13c0.6,4.3,2.2,8,5.1,11.7c-2.2-0.7-4.1-2.3-5.7-4.3c-1.6-2-2.5-4.3-2.8-7
				C228.5,1028.3,230.1,1023,233.6,1020z"/>
		</g>
		<g>
			<path class="st3" d="M249.7,1020c-1.6,5.7-2.5,11.3-2.2,16.7c0.3,5.3,2.2,10.7,6.6,14.7c-2.8-0.7-5.1-3-7-5.7
				c-1.6-2.7-2.5-5.7-2.8-8.7C244,1030.6,245.9,1024.3,249.7,1020z"/>
		</g>
		<path d="M488.7,1048.6c7.9,3.3,22.5,8.3,40.8,7.3c12.7-0.7,22.8-4.3,29.4-7.3c3.2-2.7,12.3-11,13.6-24c1.9-17.7-12.3-33.3-25-38.3
			c-29.8-11.7-71.5,25-68.4,48C480.1,1038.6,482.7,1043.6,488.7,1048.6z"/>
		<g>
			<path class="st3" d="M525.1,1024.6c4.4,3.3,7.3,9.3,7.6,15.7c0,3-0.3,6.3-1.9,9c-1.3,2.7-3.2,5-5.7,6.7c3.2-4.7,4.7-10,4.4-15.3
				C529.2,1035,527.6,1030,525.1,1024.6z"/>
		</g>
		<g>
			<path class="st3" d="M563.7,1022.3c3.5,3,5.4,8.3,4.4,13.3c-0.3,2.7-1.3,5-2.8,7c-1.6,2-3.5,3.7-5.7,4.3
				c2.8-3.7,4.7-7.7,5.1-11.7C565.6,1031,565,1026.6,563.7,1022.3z"/>
		</g>
		<g>
			<path class="st3" d="M547.5,1022.3c3.8,4.3,5.7,10.7,5.4,17c-0.3,3-1.3,6.3-2.8,8.7c-1.6,2.7-4.1,4.7-7,5.7c4.1-4,6-9.3,6.6-14.7
				C550.4,1033.3,549.1,1028,547.5,1022.3z"/>
		</g>
		<path class="st1" d="M312,688.5c-20.4,18.7-40.8,37.4-61.1,56.1c-11.9,35.6-16,66.3-6.1,71.9c10.7,6.1,38.1-16.6,67.2-55.3
			c1.5-24.3,2.9-48.5,4.4-72.8"/>
		<path d="M195.4,684.2c18.7,20.8,37.4,41.5,56.1,62.3c-2.4,7.2-5,17.7-5.3,30.7c-0.2,13.3,2.2,24.2,4.4,31.6c0.1,5-0.8,7.9-2.6,8.8
			c-8.2,3.9-35.7-32.6-82.4-109.6L195.4,684.2z"/>
		<path d="M603.4,679.7c7.3-4.5,21.2-11.6,39.5-13.1c12.6-1.1,23.2,0.9,30.3,2.8c3.3,2.1,13.6,9.2,16.9,21.7
			c4.2,17.4-7.7,34.9-19.6,41.6c-27.9,16.1-74.1-14.5-74-37.9C596.5,690.8,598.4,685.3,603.4,679.7z"/>
		<g>
			<path class="st3" d="M642.9,698.3c4.2-4.3,6-10.4,5.3-16.7c-0.2-3-1.3-6.3-3.1-8.5c-1.7-2.6-4.1-4.8-6.7-5.6
				c3.8,4.4,6,9.3,6.6,14.6C645.7,687.4,644.8,692.8,642.9,698.3z"/>
		</g>
		<g>
			<path class="st3" d="M681.4,694.9c3.3-3.5,4.2-9.3,2.6-13.8c-0.8-2.3-1.9-4.6-3.6-6.5c-1.7-1.9-3.7-3.1-6.2-3.6
				c3.4,3.1,5.5,7,6.7,10.9C682.1,686.2,682.4,690.2,681.4,694.9z"/>
		</g>
		<g>
			<path class="st3" d="M665.7,697.2c3.2-4.9,4-11.6,3-17.5c-0.8-3-1.9-5.9-4-8.4c-2-2.2-4.7-4.1-7.6-4.5c4.6,3.4,7.2,8.2,8.4,13.5
				C666.6,685.8,666.6,691.5,665.7,697.2z"/>
		</g>
	</g>
	<g id="Слой_1_2_">
		<path class="st1" d="M586.3,387.4c-2.9-11.5-156.1,4.6-152.4,20.5c3.7,15.8,72.8,149.4,95.3,122.2
			C551.8,503.2,589.1,399.1,586.3,387.4z"/>
		<path class="st1" d="M357.9,400c-5.1-12.5-13-28.2-25.1-44.6c-14.4-19.5-37.1-41.2-41.8-42.2c-4.7-0.9-34.5,40.1-44.1,83.3
			c-11.3,51.1,3.4,92.2,9.6,107.1C290.2,469.1,324,434.6,357.9,400z"/>
		<path class="st2" d="M342.3,418.8c-3.2-7.8-8.2-17.8-15.8-28.1c-9.1-12.3-23.4-26-26.3-26.6c-2.9-0.6-21.7,25.3-27.8,52.5
			c-7.1,32.2,2.1,58.1,6,67.5C299.7,462.3,321,440.5,342.3,418.8z"/>
		<path class="st2" d="M547,416.5c-1.5-5.7-78.9,4.2-77.2,12.1c1.7,7.9,35.2,74,46.8,60C528.3,474.5,548.2,422.1,547,416.5z"/>
		<path class="st2" d="M405.9,395.7c-81.2-6.9-153.4,66.2-161.7,163.1c-4.2,49.3,145,85.7,145,85.7s144.7-13.1,148.7-60.7
			C546.2,486.9,487.1,402.6,405.9,395.7z"/>
		<path class="st1" d="M405.4,583.5c-10.1-0.9-20.2-1.7-30.2-2.6c0.6-7.3,3-45.7-25.1-79.4c-28.4-33.7-66.7-37.6-74-38.2
			c7.2-11.5,24.2-35.2,55.2-51.7c11.2-6.1,38.7-20.4,75.9-17.2c43.4,3.7,71.1,29.2,80.8,38.2c20.1,18.9,30.2,39.5,35.4,51.8
			c-7-0.6-46.8-3.1-81,26.7C410.3,539.1,406.1,575.7,405.4,583.5z"/>
		<g>
			<polygon points="388.1,601.2 372.4,580.7 407.1,583.6 			"/>
			<g>
				<path d="M391.5,598.4c-5.3-6.9-10.4-13.6-15.7-20.5c-1.3,2.4-2.4,4.6-3.7,7c11.5,1,23,2,34.7,3c-0.9-2.6-1.6-4.9-2.5-7.5
					c-6.4,5.9-12.6,11.6-19,17.6c-4,3.6,1.4,10.3,5.4,6.4c6.4-5.9,12.6-11.6,19-17.6c2.7-2.3,1.5-7.2-2.5-7.5c-11.5-1-23-2-34.7-3
					c-3.6-0.3-5.7,4-3.7,7c5.3,6.9,10.4,13.6,15.7,20.5C388.4,608.3,394.7,602.9,391.5,598.4z"/>
			</g>
		</g>
	</g>
	<path class="st2" d="M350.5,553.2c0,0,5-60.7-49.7-47C300.8,506.1,280.8,550.1,350.5,553.2z"/>
	<path class="st2" d="M432.3,559.8c0,0,7-60.7,58.1-36.5C490.4,523.2,501.5,570.4,432.3,559.8z"/>
	<circle class="st4" cx="457.6" cy="538.7" r="17.3"/>
	<g>
		<path d="M432.3,559.8c0.2-3.5,0.7-7,1.5-10.4c0.8-3.4,1.8-6.8,3.2-10.1c1.4-3.3,3-6.5,5.1-9.5c2-3,4.5-5.7,7.5-8
			c2.9-2.3,6.3-4.1,9.9-5.2c3.6-1.1,7.4-1.4,11.1-1.3c7.4,0.4,14.5,2.7,21,5.7l1.1,0.5l0.2,1.2c0.2,1.1,0.3,1.9,0.4,2.9
			c0.1,0.9,0.2,1.8,0.2,2.8c0.1,1.8,0,3.7-0.2,5.5c-0.4,3.7-1.3,7.4-2.9,10.8c-1.7,3.4-4,6.5-6.8,9c-2.8,2.5-6.1,4.4-9.5,5.7
			c-3.4,1.3-6.9,2.1-10.5,2.7c-3.5,0.4-7.1,0.6-10.6,0.5c-1.8-0.1-3.5-0.1-5.3-0.3c-1.7-0.2-3.5-0.3-5.2-0.6l-2.6-0.4
			c-0.9-0.1-1.7-0.2-2.6-0.4C435.6,560.5,433.9,560.1,432.3,559.8z M432.3,559.8c3.7,0.3,6.9,0.4,10.4,0.5c1.7,0.1,3.5,0,5.2,0
			c1.7,0,3.4-0.1,5.1-0.2c3.4-0.2,6.8-0.7,10.1-1.3c3.3-0.8,6.5-1.7,9.5-3.1c3-1.4,5.7-3.2,8-5.3c2.3-2.2,4.2-4.8,5.4-7.7
			c1.3-2.9,2-6,2.3-9.2c0.1-1.6,0.2-3.2,0.1-4.8c0-0.8-0.1-1.6-0.2-2.4c-0.1-0.8-0.2-1.6-0.4-2.3l1.4,1.7c-6.1-2.9-12.6-5-19.1-5.5
			c-3.2-0.2-6.5-0.1-9.6,0.8c-3.1,0.8-6.1,2.2-8.7,4.1c-5.4,3.8-9.5,9.3-12.6,15.4c-1.6,3-2.9,6.2-4.1,9.5c-0.6,1.6-1.1,3.3-1.6,5
			C433.1,556.4,432.7,558.1,432.3,559.8z"/>
	</g>
	<circle class="st4" cx="328.8" cy="527.5" r="17.3"/>
	<g>
		<path d="M350.5,553.2c0-1.7-0.1-3.5-0.3-5.2c-0.2-1.7-0.3-3.4-0.6-5.2c-0.5-3.4-1.2-6.8-2.1-10.1c-1.9-6.5-4.9-12.8-9.4-17.5
			c-2.3-2.3-4.9-4.3-7.7-5.7c-2.9-1.4-6-2.2-9.3-2.6c-6.5-0.8-13.2,0-19.7,1.7l1.7-1.4c-0.3,0.6-0.6,1.4-0.8,2.2
			c-0.3,0.8-0.5,1.5-0.7,2.3c-0.4,1.6-0.7,3.2-0.9,4.8c-0.3,3.2-0.2,6.4,0.5,9.5c0.7,3.1,2,6,3.8,8.6c1.8,2.6,4.2,4.8,6.8,6.8
			c2.6,1.9,5.6,3.4,8.7,4.8c3.1,1.3,6.3,2.4,9.6,3.3c1.6,0.4,3.3,0.9,5,1.2c1.7,0.3,3.4,0.7,5.1,1
			C343.7,552.2,346.9,552.7,350.5,553.2z M350.5,553.2c-1.6,0-3.4,0-5.2,0c-0.9,0-1.8,0-2.7-0.1l-2.6-0.1c-1.7,0-3.5-0.3-5.2-0.5
			c-1.7-0.1-3.5-0.5-5.2-0.7c-3.5-0.6-6.9-1.5-10.3-2.6c-3.3-1.2-6.6-2.7-9.7-4.7c-3.1-2-5.9-4.4-8.2-7.4c-2.3-3-4-6.4-4.9-10.1
			c-0.9-3.7-1.1-7.4-0.8-11.1c0.2-1.8,0.5-3.7,0.9-5.5c0.2-0.9,0.5-1.8,0.7-2.7c0.3-0.9,0.6-1.7,1-2.7l0.5-1.1l1.2-0.3
			c6.9-1.7,14.3-2.6,21.6-1.5c3.6,0.6,7.3,1.7,10.6,3.4c3.3,1.8,6.3,4.2,8.7,7c2.4,2.8,4.3,6,5.7,9.3c1.4,3.3,2.4,6.8,3.1,10.3
			c0.6,3.5,1,7,1.1,10.5C351.1,546.2,351,549.7,350.5,553.2z"/>
	</g>
	<g>
		<path d="M351.8,495.1c-0.7,0.3-1.2,0.5-1.8,0.7c-0.6,0.2-1.1,0.4-1.7,0.5c-1.1,0.3-2.2,0.6-3.4,0.8c-2.3,0.4-4.6,0.7-7,0.6
			c-1.1,0-2.4-0.1-3.5-0.3c-1.1-0.1-2.2-0.3-3.2-0.5c-2.1-0.3-4.2-0.7-6.3-1.1c-4.2-0.8-8.4-1.6-12.6-2.4c-4.2-0.9-8.3-1.7-12.5-2.7
			c4.2,0.4,8.5,0.6,12.7,0.8c4.2,0.2,8.5,0.4,12.7,0.5c2.1,0.1,4.2,0.1,6.3,0.1c1,0,2.1,0,3.1,0c0.5,0,1,0,1.5-0.1
			c0.5,0,0.9-0.1,1.4-0.2c1.9-0.3,3.7-0.8,5.6-1.4c0.9-0.3,1.8-0.7,2.7-1.1c0.4-0.2,0.9-0.4,1.3-0.6c0.4-0.2,0.9-0.5,1.1-0.6
			L351.8,495.1z"/>
	</g>
	<g>
		<path d="M446.2,499.4c0.3,0.1,0.8,0.3,1.2,0.5c0.4,0.2,0.9,0.3,1.4,0.4c0.9,0.3,1.9,0.5,2.8,0.7c1.9,0.4,3.8,0.6,5.7,0.7
			c1.9,0,3.8-0.3,5.8-0.7c2-0.4,4.1-0.9,6.2-1.4c4.1-1,8.3-2,12.5-2.8c2.1-0.4,4.2-0.8,6.4-1.1c2.1-0.2,4.3-0.5,6.4-0.2
			c-2.1,0.1-4.2,0.6-6.2,1.1c-2,0.6-4,1.3-6,2c-4,1.4-7.9,3-11.9,4.6c-2,0.8-4,1.6-6,2.3c-2,0.7-4.3,1.4-6.7,1.8
			c-2.3,0.3-4.7,0.4-7,0.3c-1.2-0.1-2.3-0.2-3.5-0.4c-0.6-0.1-1.2-0.2-1.7-0.3c-0.6-0.1-1.1-0.2-1.8-0.4L446.2,499.4z"/>
	</g>
	<g>
		<path d="M374.9,622.9c0.8-1.2,1.7-2.3,2.6-3.4l1.4-1.5c0.5-0.5,1-1,1.5-1.4c1-1,2.1-1.8,3.1-2.7c1.1-0.9,2.2-1.7,3.3-2.5l1.9-1.3
			l1.5,1.7c0.9,1,1.7,2,2.5,3c0.8,1.1,1.6,2.1,2.3,3.2c0.7,1.1,1.4,2.2,2.1,3.4c0.6,1.2,1.3,2.4,1.7,3.7l-0.2,0.2
			c-3.5-3.8-7-7.8-10.5-11.6l0.4,0l-6.7,4.7c-2.2,1.6-4.5,3.2-6.7,4.7L374.9,622.9z"/>
	</g>
	<circle cx="331" cy="525.2" r="13.4"/>
	<circle cx="456.5" cy="537.4" r="13.4"/>
	<path class="st1" d="M483.9,686.8c20.4,18.7,40.8,37.4,61.1,56.1c11.9,35.6,16,66.3,6.1,71.9c-10.7,6.1-38.1-16.6-67.2-55.3
		c-1.5-24.3-2.9-48.5-4.4-72.8"/>
	<path d="M600.5,682.4c-18.7,20.8-37.4,41.5-56.1,62.3c2.4,7.2,5,17.7,5.3,30.7c0.2,13.3-2.2,24.2-4.4,31.6c-0.1,5,0.8,7.9,2.6,8.8
		c8.2,3.9,35.7-32.6,82.4-109.6L600.5,682.4z"/>
</g>
</svg>
