<?xml version="1.0" encoding="utf-8"?>
<!-- Generator: Adobe Illustrator 22.0.1, SVG Export Plug-In . SVG Version: 6.00 Build 0)  -->
<svg version="1.1" xmlns="http://www.w3.org/2000/svg" xmlns:xlink="http://www.w3.org/1999/xlink" x="0px" y="0px"
	 viewBox="0 0 1920 1080" style="enable-background:new 0 0 1920 1080;" xml:space="preserve">
<style type="text/css">
	.st0{fill:#F2F2F2;}
	.st1{font-family:'SFProDisplay-Ultralight';}
	.st2{font-size:353.287px;}
	.st3{fill:#F15A24;}
	.st4{fill:#FFFFFF;}
	.st5{fill:#333333;}
</style>
<g id="Слой_2">
	<g id="Слой_6">
	</g>
	<text transform="matrix(1 0 0 1 91 633.2705)" class="st0 st1 st2">Fox    Project</text>
</g>
<g id="хвост">
	<path class="st3" d="M695.7,595.3c-9.9-6.4-7.8-23-7.4-26.3c3-23.5,26.4-36.1,30.1-38c-1.3-2.8-11.8-24.1-36.3-29.8
		c-24.5-5.7-43.2,9-47.8,12.9c-18.7,16-25.2,42.8-17.9,65.9c10.3,32.3,43,41.4,49.4,43c20,5,52.4,3.5,62.2-15.8
		c4-7.9,3-16.6,1.7-22.3C718.9,597.3,704.1,600.7,695.7,595.3z"/>
	<path class="st4" d="M695.8,550.3c0,0,3-4.5,8-9.1c0.2-0.2,0.8-0.7,1.4-1.3c2.4-2.1,6.5-5.3,13.3-8.9c-2.1-4.5-7.5-14.5-18.9-22.1
		c-9.7-6.5-19.2-8.2-24.1-8.8c0.3,4.3,0.4,15.7,1.7,23.2c3.1,17.5,14.2,32.5,14.7,33C692.3,556.8,692.9,554.5,695.8,550.3z"/>
</g>
<g id="туловище">
	<path class="st3" d="M798.6,627.3c-9.3,0.6-19.4,0.9-30.2,0.7c-8.9-0.2-17.3-0.7-25.2-1.4c-25.2-11.2-35.2-33-29.5-45.3
		c4.6-10,19-12.4,22.3-12.9c2.9-21.8,5.8-43.6,8.6-65.4c6.6,0.8,13.8,1.3,21.6,1.4c10.8,0.2,20.7-0.4,29.5-1.4
		c2.9,22.8,5.8,45.5,8.6,68.3c3.5,0.2,18.3,1.6,23,10.8C833.1,593,823.7,614.4,798.6,627.3z"/>
	<path class="st4" d="M784.3,628c-3.8,0.6-8.5,0.7-11.5,0.7c-3.2,0-9.1,0.1-13.7-0.7c-10.6-1.9-17.8-9.1-21.6-12.9
		c-1.7-1.8-19.8-20.2-14.4-28.8c3.6-5.7,16.9-5.9,31.6,0c0.7-26.6,1.4-53.2,2.2-79.8c4.1,0.5,8.7,0.7,13.7,0.7
		c4.4,0,8.5-0.3,12.2-0.7c1.2,26.6,2.4,53.2,3.6,79.8c16.1-6,30.3-4.8,33.8,1.4c4.8,8.6-11.3,24.9-13.7,27.3
		C803.4,618.3,795.6,626.1,784.3,628z"/>
	<path d="M742.6,627.3c-2.5,1-7.1,2.5-12.9,2.2c-4-0.2-7.2-1.3-9.3-2.2c-1-0.8-3.9-3.3-4.3-7.2c-0.6-5.3,3.9-10,7.9-11.5
		c9.4-3.5,22.6,7.5,21.6,14.4C745.2,624.3,744.5,625.8,742.6,627.3z"/>
</g>
<g id="лапки">
	<path d="M771.6,629.9c2.4,1.2,6.9,3.1,12.7,3.2c4,0.1,7.3-0.7,9.5-1.4c1-0.7,4.1-3,4.9-6.8c1-5.3-3.1-10.3-7-12.1
		c-9.1-4.3-23.1,5.7-22.6,12.7C769.2,626.7,769.9,628.3,771.6,629.9z"/>
	<g>
		<path class="st5" d="M783.7,623.6c1.4,1.2,2.1,3,2,4.9c0,0.9-0.3,1.9-0.8,2.6c-0.5,0.8-1.2,1.5-2,1.8c1.1-1.4,1.7-2.9,1.8-4.5
			C784.8,626.8,784.4,625.2,783.7,623.6z"/>
	</g>
	<g>
		<path class="st5" d="M795.9,623.9c1.1,1,1.5,2.7,1.1,4.1c-0.2,0.7-0.5,1.4-1,2c-0.5,0.6-1.1,1-1.9,1.2c1-1,1.6-2.2,1.9-3.4
			C796.3,626.5,796.3,625.3,795.9,623.9z"/>
	</g>
	<g>
		<path class="st5" d="M790.9,623.5c1.1,1.4,1.5,3.4,1.3,5.2c-0.2,0.9-0.5,1.8-1.1,2.6c-0.6,0.7-1.4,1.3-2.3,1.5
			c1.4-1.1,2.1-2.6,2.4-4.2C791.4,626.9,791.3,625.2,790.9,623.5z"/>
	</g>
	<path d="M789.8,616.9c-0.1-0.2-0.2-0.4-0.3-0.4c-1.6-1.3,0.7-24.5,9.3-81.2c-0.1-10.5-1.1-13.5-2.2-13.7c-0.8-0.1-1.9,1.4-4.3,4.3
		c-1.2,1.5-2,2.6-2.2,2.9c-1.3,1.9-3,4.6-5,7.9c-6.4,37.4-11.2,60.9-15.2,76.5c-0.9,3.7-3.1,11.9,0.1,14.1
		C775,630.6,790.8,619.8,789.8,616.9z"/>
	<path class="st3" d="M793.9,576.9c1.3-6.6,2.2-11.3,2.5-12.7c0.1-0.3,0.3-1.6,0.6-3.2c0-0.2,0-0.3,0.1-0.6c1-7.2,2-15.9,2.6-25.9
		c-0.2-4.5-0.9-12.7-2.9-12.9c-1-0.1-3.4,1.9-4.3,2.9c-0.3,0.3-0.4,0.5-0.7,0.7c-1,0.9-1.5,1.4-2.2,1.4c-0.7,0-1-0.6-1.4-0.7
		c-0.9-0.3-2.9,1.9-7.2,10.8c-1.1,15.2-1.8,21.6-2.2,23.7c0,0.1-0.2,1-0.4,2.1c0,0,0,0,0,0c0,0-0.4,2.6-0.8,5.2
		c-0.5,3.1-0.3,5.3-1,9.9c-0.6,4.1-0.3,8.3-1.4,12.2c0,0.1-0.2,0.6,0,0.7c1.1,0.8,11.5-14.5,15.1-12.9c3,1.3,0.4,13.6,0.7,13.7
		c0.2,0,0.6-2.8,0.7-3.6C792.4,583.2,793.2,579.5,793.9,576.9z"/>
	<path d="M769.1,629.9c-2.4,1.2-6.9,3.1-12.7,3.2c-4,0.1-7.3-0.7-9.5-1.4c-1-0.7-4.1-3-4.9-6.8c-1-5.3,3.1-10.3,7-12.1
		c9.1-4.3,23.1,5.7,22.6,12.7C771.5,626.7,770.9,628.3,769.1,629.9z"/>
	<g>
		<path class="st5" d="M757.1,623.6c-0.7,1.6-1.1,3.2-1,4.8c0.1,1.6,0.6,3.1,1.8,4.5c-0.8-0.3-1.5-1-2-1.8c-0.5-0.8-0.7-1.7-0.8-2.6
			C755,626.6,755.7,624.8,757.1,623.6z"/>
	</g>
	<g>
		<path class="st5" d="M744.8,623.9c-0.4,1.4-0.4,2.7-0.1,3.9c0.3,1.2,0.9,2.4,1.9,3.4c-0.7-0.2-1.4-0.6-1.9-1.2
			c-0.5-0.6-0.9-1.3-1-2C743.4,626.5,743.8,624.9,744.8,623.9z"/>
	</g>
	<g>
		<path class="st5" d="M749.8,623.5c-0.4,1.8-0.5,3.4-0.3,5c0.3,1.6,1,3.1,2.4,4.2c-0.9-0.2-1.7-0.7-2.3-1.5
			c-0.6-0.7-0.9-1.6-1.1-2.6C748.3,626.8,748.8,624.9,749.8,623.5z"/>
	</g>
	<path d="M750.9,616.9c0.1-0.2,0.2-0.4,0.3-0.4c1.6-1.3-0.7-24.5-9.3-81.2c0.1-10.5,1.1-13.5,2.2-13.7c0.8-0.1,1.9,1.4,4.3,4.3
		c1.2,1.5,2,2.6,2.2,2.9c1.3,1.9,3,4.6,5,7.9c6.4,37.4,11.2,60.9,15.2,76.5c0.9,3.7,3.1,11.9-0.1,14.1
		C765.8,630.6,749.9,619.8,750.9,616.9z"/>
	<g>
		<path class="st5" d="M731.1,620.1c-0.8,1.6-1.4,3.1-1.4,4.7c-0.1,1.6,0.4,3.2,1.4,4.6c-0.8-0.4-1.4-1.1-1.8-2
			c-0.4-0.8-0.6-1.8-0.6-2.7C728.7,622.9,729.6,621.1,731.1,620.1z"/>
	</g>
	<g>
		<path class="st5" d="M718.8,619.4c-0.5,1.4-0.6,2.6-0.4,3.9c0.2,1.3,0.7,2.4,1.6,3.5c-0.7-0.2-1.3-0.7-1.8-1.3
			c-0.5-0.6-0.8-1.3-0.9-2.1C717.2,621.9,717.7,620.3,718.8,619.4z"/>
	</g>
	<g>
		<path class="st5" d="M723.9,619.4c-0.5,1.7-0.8,3.4-0.7,5c0.1,1.6,0.7,3.2,2.1,4.4c-0.9-0.2-1.6-0.9-2.2-1.7
			c-0.5-0.8-0.8-1.7-0.9-2.6C722.1,622.6,722.7,620.7,723.9,619.4z"/>
	</g>
	<path d="M799.4,628c2.5,1,7.1,2.5,12.9,2.2c4-0.2,7.2-1.3,9.3-2.2c1-0.8,3.9-3.3,4.3-7.2c0.6-5.3-3.9-10-7.9-11.5
		c-9.4-3.5-22.6,7.5-21.6,14.4C796.7,625,797.5,626.5,799.4,628z"/>
	<g>
		<path class="st5" d="M810.9,620.8c1.4,1,2.3,2.8,2.4,4.7c0,0.9-0.1,1.9-0.6,2.7c-0.4,0.8-1,1.5-1.8,2c1-1.4,1.5-3,1.4-4.6
			C812.2,623.9,811.7,622.4,810.9,620.8z"/>
	</g>
	<g>
		<path class="st5" d="M823.1,620.1c1.1,0.9,1.7,2.5,1.4,4c-0.1,0.8-0.4,1.5-0.9,2.1c-0.5,0.6-1.1,1.1-1.8,1.3
			c0.9-1.1,1.5-2.3,1.6-3.5C823.7,622.7,823.5,621.4,823.1,620.1z"/>
	</g>
	<g>
		<path class="st5" d="M818,620.1c1.2,1.3,1.8,3.2,1.7,5.1c-0.1,0.9-0.4,1.9-0.9,2.6c-0.5,0.8-1.3,1.4-2.2,1.7
			c1.3-1.2,1.9-2.8,2.1-4.4C818.9,623.4,818.5,621.8,818,620.1z"/>
	</g>
	<path class="st3" d="M746.9,576.9c-1.3-6.6-2.2-11.3-2.5-12.7c-0.1-0.3-0.3-1.6-0.6-3.2c0-0.2,0-0.3-0.1-0.6
		c-1-7.2-2-15.9-2.6-25.9c0.2-4.5,0.9-12.7,2.9-12.9c1-0.1,3.4,1.9,4.3,2.9c0.3,0.3,0.4,0.5,0.7,0.7c1,0.9,1.5,1.4,2.2,1.4
		c0.7,0,1-0.6,1.4-0.7c0.9-0.3,2.9,1.9,7.2,10.8c1.1,15.2,1.8,21.6,2.2,23.7c0,0.1,0.2,1,0.4,2.1c0,0,0,0,0,0c0,0,0.4,2.6,0.8,5.2
		c0.5,3.1,0.3,5.3,1,9.9c0.6,4.1,0.3,8.3,1.4,12.2c0,0.1,0.2,0.6,0,0.7c-1.1,0.8-11.5-14.5-15.1-12.9c-3,1.3-0.4,13.6-0.7,13.7
		c-0.2,0-0.6-2.8-0.7-3.6C748.3,583.2,747.5,579.5,746.9,576.9z"/>
</g>
<g id="Слой_1">
	<path class="st3" d="M714.2,401.5c2.2-3.6,52.6,17.9,49.7,22.9c-2.9,5-40.4,43.2-45.2,31.6C713.7,444.5,712,405.2,714.2,401.5z"/>
	<path class="st3" d="M823.1,401.5c-2.2-3.6-52.6,17.9-49.7,22.9c2.9,5,40.4,43.2,45.2,31.6C823.5,444.5,825.3,405.2,823.1,401.5z"
		/>
	<path class="st4" d="M812.8,415.5c-1.1-1.8-26.4,9.7-25,12.2s19.7,21.5,22.2,15.5C812.5,437.2,813.8,417.3,812.8,415.5z"/>
	<path class="st4" d="M724.6,415.5c1.1-1.8,26.4,9.7,25,12.2s-19.7,21.5-22.2,15.5C724.9,437.2,723.5,417.3,724.6,415.5z"/>
	<path class="st4" d="M768.9,420.7c-29,0-52.4,28.1-52.4,62.7c0,17.6,54,26,54,26s50.9-9,50.9-26
		C821.4,448.8,797.9,420.7,768.9,420.7z"/>
	<path class="st3" d="M774.4,487.3c-3.6,0-7.2,0-10.8,0c0-2.6-0.3-16.3-11.3-27.4c-11.1-11.1-24.8-11.3-27.4-11.3
		c2.2-4.3,7.5-13.2,18-20c3.8-2.5,13.1-8.4,26.4-8.4c15.5,0,26.1,8.2,29.8,11.1c7.7,6.1,11.9,13.1,14.1,17.3
		c-2.5,0-16.7,0.3-27.9,11.9C774.8,471.4,774.4,484.5,774.4,487.3z"/>
	<g>
		<polygon points="768.8,494.1 762.6,487.3 775,487.3 		"/>
		<g>
			<path d="M769.9,493c-2.1-2.3-4.1-4.5-6.2-6.8c-0.4,0.9-0.7,1.7-1.1,2.6c4.1,0,8.2,0,12.4,0c-0.4-0.9-0.7-1.7-1.1-2.6
				c-2.1,2.3-4.1,4.5-6.2,6.8c-1.3,1.4,0.8,3.6,2.1,2.1c2.1-2.3,4.1-4.5,6.2-6.8c0.9-0.9,0.3-2.6-1.1-2.6c-4.1,0-8.2,0-12.4,0
				c-1.3,0-1.9,1.6-1.1,2.6c2.1,2.3,4.1,4.5,6.2,6.8C769.1,496.6,771.2,494.5,769.9,493z"/>
		</g>
	</g>
	<g>
		<path d="M751.3,481.3c0,0-2-2.6-4-5.2c-2-2.6-11.5-2.9-11.5-2.9C741.8,475,747.7,477.1,751.3,481.3z"/>
		<path d="M751.3,481.3c-0.6-0.8-1.2-1.4-1.8-2c-0.6-0.6-1.2-1-1.7-1.5c-0.3-0.2-0.5-0.5-0.7-0.7c-0.2-0.2-0.5-0.5-0.7-0.6
			c-0.4-0.3-1-0.6-1.7-0.7c-1.4-0.4-2.8-0.6-4.3-0.7c-1.5-0.2-3-0.3-4.5-0.3l0.5-2.9c2.9,0.9,5.7,1.9,8.4,3.4
			c1.3,0.7,2.6,1.6,3.8,2.6C749.5,478.8,750.6,480,751.3,481.3z M751.3,481.3c-2.4-1.8-4.9-3.1-7.6-4.1c-2.7-1-5.4-1.8-8.3-2.6
			l-11.6-3.4l12.1,0.4c1.6,0.1,3.2,0.2,4.8,0.5c1.6,0.3,3.2,0.6,4.7,1.4c0.8,0.3,1.6,0.8,2.3,1.5c0.4,0.4,0.6,0.8,0.8,1.2
			c0.2,0.4,0.5,0.8,0.7,1.2c0.4,0.8,0.8,1.6,1.1,2.2C750.6,480.3,750.9,480.8,751.3,481.3z"/>
	</g>
	<g>
		<path d="M786.2,481.3c0,0,2-2.6,4-5.2c2-2.6,11.5-2.9,11.5-2.9C795.6,475,789.7,477.1,786.2,481.3z"/>
		<path d="M786.2,481.3c0.4-0.5,0.7-1,1-1.7c0.3-0.7,0.7-1.4,1.1-2.2c0.2-0.4,0.4-0.8,0.7-1.2c0.2-0.4,0.4-0.8,0.8-1.2
			c0.7-0.7,1.5-1.2,2.3-1.5c1.6-0.7,3.2-1.1,4.7-1.4c1.6-0.3,3.2-0.4,4.8-0.5l12.1-0.4l-11.6,3.4c-2.8,0.8-5.6,1.6-8.3,2.6
			C791.1,478.3,788.5,479.5,786.2,481.3z M786.2,481.3c0.7-1.3,1.7-2.5,2.9-3.5c1.2-1,2.4-1.9,3.8-2.6c2.7-1.5,5.5-2.5,8.4-3.4
			l0.5,2.9c-1.5,0.1-3,0.2-4.5,0.3c-1.5,0.2-3,0.4-4.3,0.7c-0.7,0.2-1.3,0.4-1.7,0.7c-0.2,0.1-0.4,0.4-0.7,0.6
			c-0.2,0.2-0.5,0.5-0.7,0.7c-0.5,0.4-1.1,0.9-1.7,1.5C787.3,479.9,786.7,480.6,786.2,481.3z"/>
	</g>
</g>
</svg>
